<?xml version="1.0" standalone="no"?><!DOCTYPE svg PUBLIC "-//W3C//DTD SVG 1.1//EN" "http://www.w3.org/Graphics/SVG/1.1/DTD/svg11.dtd"><svg t="1738591450822" class="icon" viewBox="0 0 1260 1024" version="1.1" xmlns="http://www.w3.org/2000/svg" p-id="4656" xmlns:xlink="http://www.w3.org/1999/xlink" width="315" height="256"><path d="M1233.804203 546.921691l-259.802136-0.315007a26.381848 26.381848 0 0 1-32.130728-17.719151l-39.139636-118.600187-122.69528 548.348673s-2.520057 28.980657-18.900429 28.980657-44.100999 0.393759-44.100999 0.393759a25.59433 25.59433 0 0 1-31.185706-17.089138L533.62209 255.776345l-115.371364 516.611704c-3.701334 12.994044-19.687946 23.783039-33.469508 20.317961l-40.872176 0.551262c-14.254073 3.622582-28.980657-4.331348-32.839494-17.719151l-76.940494-228.61643H26.224344A25.673082 25.673082 0 0 1 0 521.957376V471.949993c0-13.781562 11.812768-25.043067 26.224344-25.043068l258.463356-0.787518c15.671605-0.472511 28.980657 1.260029 32.839494 14.647832l40.005906 118.915194L470.148152 18.812226s5.670128-17.089137 23.625535-17.089137c18.11291 0 56.07127-0.630014 56.07127-0.630014a25.59433 25.59433 0 0 1 31.106955 17.089137l150.888419 709.632328 111.512526-509.681548c3.622582-12.915293 14.254073-23.704287 27.79938-20.239208l44.888517-0.551263a26.381848 26.381848 0 0 1 32.130728 17.719151l76.625486 231.845253h209.007235c14.490328 0 26.224344 11.261505 26.224345 25.043068v50.007383c0 13.781562-11.812768 24.964316-26.224345 24.964315z" fill="#3D7FFF" p-id="4657"></path></svg>